# xmcd CD database file
#
# Track frame offsets:
#	150
#	13729
#	26553
#	38147
#	51502
#	64580
#	77557
#	91895
#	105648
#	118784
#	132738
#	144738
#	157738
#	170480
#	184294
#	196833
#	208554
#	220809
#	233589
#	246818
#	260810
#	272854
#	285959
#	299276
#	310985
#	323427
#	335518
#	346988
#
# Disc length: 4780 seconds
#
# Revision: 1
# Processed by: cddbd v1.4PL0 Copyright (c) Steve Scherf et al.
# Submitted via: CDex 1.51
#
DISCID=9f12aa1c
DTITLE=Celia Cruz - Salsa Queen
DYEAR=2003
DGENRE=Salsa
TTITLE0=Cao, cao mani picao
TTITLE1=Baila yemaya
TTITLE2=La guagua
TTITLE3=Elegua quiere tambo
TTITLE4=Abre la Puerta Querida
TTITLE5=Yembe laroco
TTITLE6=Gueda zaina
TTITLE7=Agua pa' mi
TTITLE8=Reina rumba
TTITLE9=Tu voz
TTITLE10=Burundanga
TTITLE11=Melao de cana
TTITLE12=Pepe Antonio
TTITLE13=Pa' la paloma
TTITLE14=El barracon
TTITLE15=Y mi negro esta cansao
TTITLE16=Juancito trucupey
TTITLE17=Munecas del cha-cha-cha
TTITLE18=Oyela, gozala
TTITLE19=Goza negra
TTITLE20=Mi soncito
TTITLE21=El yerbero moderno
TTITLE22=El merengue
TTITLE23=Cha-cha guere
TTITLE24=Me voy a pinar del rio
TTITLE25=Tuya, y mas que tuya
TTITLE26=La merenguita
TTITLE27=No encuentro palabras
EXTD=YEAR: 2003
EXTT0=
EXTT1=
EXTT2=
EXTT3=
EXTT4=
EXTT5=
EXTT6=
EXTT7=
EXTT8=
EXTT9=
EXTT10=
EXTT11=
EXTT12=
EXTT13=
EXTT14=
EXTT15=
EXTT16=
EXTT17=
EXTT18=
EXTT19=
EXTT20=
EXTT21=
EXTT22=
EXTT23=
EXTT24=
EXTT25=
EXTT26=
EXTT27=
PLAYORDER=
